Pirates Of Carribean - On Stranger Tides - Tr1 - HD - TM

Medis Info

General
Format                           : MPEG-4

File size                        : 174 MiB

Duration                         : 2mn 28s

Overall bit rate                 : 9 803 Kbps

Movie name                       : Pirates of the Caribbean: On Stranger Tides

Video

Format                           : AVC

Format/Info                      : Advanced Video Codec

Format profile                   : Main@L4.0

Format settings, CABAC           : No

Format settings, ReFrames        : 2 frames

Format settings, GOP             : M=2, N=32

Codec ID                         : avc1

Codec ID/Info                    : Advanced Video Coding

Duration                         : 2mn 28s

Bit rate mode                    : Variable

Bit rate                         : 9 699 Kbps

Width                            : 1 920 pixels

Height                           : 800 pixels

Display aspect ratio             : 2.40:1

Frame rate mode                  : Constant

Frame rate                       : 23.976 fps

Color space                      : YUV

Chroma subsampling               : 4:2:0

Bit depth                        : 8 bits

Scan type                        : Progressive

Bits/(Pixel*Frame)               : 0.263

Stream size                      : 172 MiB (99%)

Language                         : English

Color primaries                  : BT.709-5, BT.1361, IEC 61966-2-4, SMPTE RP177

Transfer characteristics         : BT.709-5, BT.1361

Matrix coefficients              : BT.709-5, BT.1361, IEC 61966-2-4 709, SMPTE RP177

Audio

Format                           : AAC

Duration                         : 2mn 28s

Bit rate mode                    : Constant

Bit rate                         : 96.0 Kbps

Channel(s)                       : 2 channels

Channel positions                : Front: L R

Sampling rate                    : 44.1 KHz

Compression mode                 : Lossy

Stream size                      : 1.74 MiB (1%)

Language                         : English




IMDB Link http[Colon]//www[Dot]imdb[Dot]com[Slash]title[Slash]tt1298650[Slash]